<svg width="52" height="52" viewBox="0 0 52 52" fill="none" xmlns="http://www.w3.org/2000/svg">
<path d="M44.3847 7.61516C39.474 2.70451 32.9448 0 26 0C19.0551 0 12.5258 2.70451 7.61516 7.61516C2.70441 12.5259 0 19.0552 0 26C0 32.9448 2.70441 39.474 7.61516 44.3847C12.5259 49.2955 19.0551 52 26 52C32.9448 52 39.474 49.2955 44.3847 44.3847C49.2955 39.474 52 32.9448 52 26C52 19.0552 49.2955 12.526 44.3847 7.61516ZM26 48.9531C13.3436 48.9531 3.04688 38.6564 3.04688 26C3.04688 13.3436 13.3436 3.04688 26 3.04688C38.6564 3.04688 48.9531 13.3436 48.9531 26C48.9531 38.6564 38.6564 48.9531 26 48.9531Z" fill="black"/>
</svg>
